<svg xmlns="http://www.w3.org/2000/svg" xmlns:xlink="http://www.w3.org/1999/xlink" xml:space="preserve" width="100mm" height="100mm" style="shape-rendering:geometricPrecision; text-rendering:geometricPrecision; image-rendering:optimizeQuality; fill-rule:evenodd; clip-rule:evenodd" viewBox="0 0 10000 10000"> <defs> <style type="text/css"> .fil0 {fill:#004AAB} </style> </defs> <g id="Layer_x0020_1"> <metadata id="CorelCorpID_0Corel-Layer"></metadata> <path class="fil0" d="M7501 7520l156 145 -147 157 -156 -145 147 -157zm-7479 -3642l0 -64c13,-64 67,-124 180,-143 508,-84 419,-362 495,-557 31,-79 143,-123 219,-90 187,81 41,267 228,475 25,27 12,13 29,29 81,77 86,72 174,119l0 -2105c0,-231 -54,-526 176,-526l6976 0c223,0 176,266 176,487l0 4638c86,-45 83,-35 163,-109 250,-231 68,-427 268,-513 76,-34 188,11 219,89 35,91 16,184 67,284 212,412 608,158 608,444 0,318 -540,23 -651,596 -16,79 0,103 -33,162 -38,66 -91,80 -154,80 -272,0 -77,-528 -487,-623l0 1987c0,217 44,468 -176,468l-6976 0c-219,0 -176,-251 -176,-468l0 -4482c-134,31 -235,153 -285,280 -55,143 -12,344 -202,344 -69,0 -128,-22 -160,-93 -45,-100 14,-240 -166,-419 -78,-79 -133,-117 -270,-140 -70,-12 -105,-7 -159,-35 -43,-23 -73,-67 -83,-115zm9140 2302c67,50 57,110 156,137 -22,82 -94,111 -137,175 -63,-43 -92,-114 -175,-136 33,-49 36,-43 76,-80l80 -96zm-8458 -2358c99,-26 89,-87 156,-136 74,110 107,102 156,175 -83,22 -112,94 -175,137 -28,-42 -37,-46 -74,-83 -73,-71 -51,-71 -63,-93zm1657 -1325c67,-18 118,-69 136,-136l39 0c18,67 69,118 136,136l0 39c-67,18 -118,69 -136,136l-39 0c-18,-67 -69,-118 -136,-136l0 -39zm2981 156c0,122 30,195 176,195 111,0 357,-289 472,-405 151,-150 288,-287 439,-438l545 -546c52,-53 59,-84 141,-93 116,-12 323,1 449,1l-1681 1690c-150,151 -541,476 -541,629 0,95 64,161 159,165 101,4 133,-57 197,-121l1695 -1696c84,-83 635,-667 697,-667l234 0 0 6216c-194,-130 -2,-40 -268,-101 -190,-44 -337,-196 -370,-391 -29,-176 -21,-248 -219,-248 -45,0 -90,50 -109,86 -28,53 -21,92 -33,162 -18,108 -70,194 -142,267 -182,183 -515,90 -515,303 0,147 104,172 219,190 221,34 389,159 435,384 35,173 8,264 222,264 117,0 133,-180 140,-231 26,-187 176,-363 356,-404 164,-37 182,3 284,-105l0 896 -3371 0c156,-234 1227,-1139 1227,-1305 0,-80 -57,-176 -175,-176 -111,0 -357,289 -473,405l-993 994c-58,61 -50,78 -150,84 -138,7 -308,-2 -450,-2 59,-88 1762,-1771 1973,-1983 59,-59 268,-234 268,-316 0,-172 -133,-176 -214,-176 -91,0 -1142,1093 -1281,1233 -74,73 -1200,1242 -1272,1242l-1715 0 0 -6041c212,142 580,43 642,528 36,284 246,227 307,148 39,-52 38,-87 48,-166 76,-583 660,-302 660,-607 0,-243 -316,-110 -522,-316 -211,-211 -74,-522 -316,-522 -50,0 -103,29 -130,64 -77,101 -16,477 -396,580 -174,47 -140,-7 -293,96l0 -1052 4872 0c-142,213 -1228,1152 -1228,1286z"></path> </g> </svg>