<svg xmlns="http://www.w3.org/2000/svg" xmlns:xlink="http://www.w3.org/1999/xlink" xml:space="preserve" width="80mm" height="79.9999mm" style="shape-rendering:geometricPrecision; text-rendering:geometricPrecision; image-rendering:optimizeQuality; fill-rule:evenodd; clip-rule:evenodd" viewBox="0 0 8022 8022"> <defs> <style type="text/css"> .fil0 {fill:black} </style> </defs> <g id="Layer_x0020_1"> <metadata id="CorelCorpID_0Corel-Layer"></metadata> <path class="fil0" d="M6013 6530l126 146 -119 157 -126 -145 119 -158zm-6013 -3656l0 -65c10,-64 54,-124 145,-143 408,-84 337,-364 398,-560 25,-79 114,-123 176,-90 150,81 32,268 183,477 20,28 10,13 24,29 64,77 68,72 139,119l0 -2113c0,-231 -43,-528 141,-528l5610 0c179,0 141,267 141,489l0 4657c69,-46 67,-35 131,-110 201,-232 55,-428 216,-515 61,-34 150,11 175,90 29,91 13,184 54,284 171,414 489,159 489,447 0,319 -434,22 -524,598 -12,79 1,104 -26,162 -31,66 -73,81 -124,81 -218,0 -62,-530 -391,-626l0 1996c0,217 35,469 -141,469l-5610 0c-176,0 -141,-252 -141,-469l0 -4501c-107,32 -189,154 -229,282 -44,142 -10,344 -162,344 -56,0 -103,-22 -129,-93 -36,-100 11,-240 -133,-421 -63,-79 -108,-116 -217,-140 -57,-12 -85,-7 -128,-35 -35,-23 -59,-67 -67,-115zm7348 2311c54,49 46,110 126,137 -18,83 -76,112 -110,176 -51,-43 -75,-115 -141,-137 26,-49 29,-42 61,-80l64 -96zm-6800 -2367c80,-27 72,-88 126,-137 59,110 86,102 125,176 -66,22 -90,94 -141,137 -22,-42 -29,-46 -59,-83 -58,-72 -41,-71 -51,-93zm1332 -1331c55,-18 95,-69 110,-137l31 0c15,68 56,119 110,137l0 39c-54,18 -95,69 -110,137l-31 0c-15,-68 -55,-119 -110,-137l0 -39zm2397 157c0,122 25,195 141,195 90,0 287,-290 380,-406 122,-151 232,-289 353,-440l439 -548c41,-54 47,-85 113,-93 93,-13 260,0 361,0l-1352 1698c-121,150 -435,477 -435,631 0,95 51,161 128,165 81,4 107,-57 158,-121l1363 -1703c68,-83 511,-670 561,-670l188 0 0 6242c-157,-131 -2,-41 -216,-102 -152,-44 -271,-197 -297,-393 -24,-176 -18,-249 -177,-249 -36,0 -72,51 -87,87 -23,53 -17,92 -27,162 -14,108 -56,195 -114,269 -146,183 -414,90 -414,304 0,147 83,173 176,190 178,34 313,160 350,386 28,174 6,265 179,265 94,0 106,-181 112,-232 21,-188 141,-364 286,-405 132,-38 146,2 229,-106l0 900 -2711 0c126,-235 987,-1144 987,-1311 0,-80 -46,-176 -141,-176 -89,0 -287,290 -380,406l-799 998c-46,61 -40,79 -120,84 -111,8 -248,-1 -362,-1 48,-89 1417,-1779 1587,-1991 47,-59 215,-236 215,-318 0,-173 -107,-176 -172,-176 -74,0 -918,1097 -1030,1238 -59,73 -965,1247 -1023,1247l-1379 0 0 -6066c171,143 467,43 516,530 29,286 198,229 247,149 32,-52 31,-87 39,-167 61,-585 530,-303 530,-609 0,-244 -253,-110 -419,-318 -169,-211 -60,-524 -254,-524 -40,0 -83,30 -105,65 -62,102 -12,478 -318,582 -140,48 -112,-6 -236,97l0 -1057 3918 0c-115,214 -988,1157 -988,1292z"></path> </g> </svg>